<mxfile host="app.diagrams.net" modified="2024-01-01T00:00:00.000Z" agent="5.0" etag="xxx" version="22.1.16" type="device">
  <diagram name="Data Flow Diagram" id="data-flow-diagram">
    <mxGraphModel dx="1422" dy="794" grid="1" gridSize="10" guides="1" tooltips="1" connect="1" arrows="1" fold="1" page="1" pageScale="1" pageWidth="1169" pageHeight="827" math="0" shadow="0">
      <root>
        <mxCell id="0" />
        <mxCell id="1" parent="0" />
        
        <!-- Title -->
        <mxCell id="title" value="แผนภาพการไหลของข้อมูล (Data Flow Diagram)&#xa;ระบบผู้ช่วยการวางแผนรายวิชาและหลักสูตรด้วยแชทบอท" style="text;html=1;strokeColor=none;fillColor=none;align=center;verticalAlign=middle;whiteSpace=wrap;rounded=0;fontSize=16;fontStyle=1;" vertex="1" parent="1">
          <mxGeometry x="250" y="20" width="670" height="60" as="geometry" />
        </mxCell>
        
        <!-- External Entities -->
        <!-- User -->
        <mxCell id="user" value="ผู้ใช้งาน&#xa;(User)" style="rounded=1;whiteSpace=wrap;html=1;fillColor=#d5e8d4;strokeColor=#82b366;fontSize=12;fontStyle=1;" vertex="1" parent="1">
          <mxGeometry x="80" y="200" width="100" height="60" as="geometry" />
        </mxCell>
        
        <!-- Firebase Auth -->
        <mxCell id="firebase-auth" value="Firebase&#xa;Authentication" style="rounded=1;whiteSpace=wrap;html=1;fillColor=#fff2cc;strokeColor=#d6b656;fontSize=12;fontStyle=1;" vertex="1" parent="1">
          <mxGeometry x="980" y="150" width="120" height="60" as="geometry" />
        </mxCell>
        
        <!-- Firebase Database -->
        <mxCell id="firebase-db" value="Firebase&#xa;Realtime Database" style="rounded=1;whiteSpace=wrap;html=1;fillColor=#fff2cc;strokeColor=#d6b656;fontSize=12;fontStyle=1;" vertex="1" parent="1">
          <mxGeometry x="980" y="350" width="120" height="60" as="geometry" />
        </mxCell>
        
        <!-- n8n Chatbot -->
        <mxCell id="n8n-chatbot" value="n8n&#xa;Chatbot" style="rounded=1;whiteSpace=wrap;html=1;fillColor=#fff2cc;strokeColor=#d6b656;fontSize=12;fontStyle=1;" vertex="1" parent="1">
          <mxGeometry x="980" y="550" width="120" height="60" as="geometry" />
        </mxCell>
        
        <!-- Processes -->
        <!-- Authentication Process -->
        <mxCell id="auth-process" value="1.0&#xa;การยืนยันตัวตน&#xa;(Authentication)" style="ellipse;whiteSpace=wrap;html=1;fillColor=#e1d5e7;strokeColor=#9673a6;fontSize=11;fontStyle=1;" vertex="1" parent="1">
          <mxGeometry x="300" y="150" width="120" height="80" as="geometry" />
        </mxCell>
        
        <!-- User Management Process -->
        <mxCell id="user-mgmt-process" value="2.0&#xa;การจัดการผู้ใช้&#xa;(User Management)" style="ellipse;whiteSpace=wrap;html=1;fillColor=#e1d5e7;strokeColor=#9673a6;fontSize=11;fontStyle=1;" vertex="1" parent="1">
          <mxGeometry x="500" y="150" width="120" height="80" as="geometry" />
        </mxCell>
        
        <!-- Curriculum Data Process -->
        <mxCell id="curriculum-process" value="3.0&#xa;การจัดการข้อมูล&#xa;หลักสูตร&#xa;(Curriculum Data)" style="ellipse;whiteSpace=wrap;html=1;fillColor=#e1d5e7;strokeColor=#9673a6;fontSize=11;fontStyle=1;" vertex="1" parent="1">
          <mxGeometry x="300" y="350" width="120" height="80" as="geometry" />
        </mxCell>
        
        <!-- Visualization Process -->
        <mxCell id="visualization-process" value="4.0&#xa;การแสดงผล&#xa;แผนภาพ&#xa;(Visualization)" style="ellipse;whiteSpace=wrap;html=1;fillColor=#e1d5e7;strokeColor=#9673a6;fontSize=11;fontStyle=1;" vertex="1" parent="1">
          <mxGeometry x="500" y="350" width="120" height="80" as="geometry" />
        </mxCell>
        
        <!-- Chatbot Process -->
        <mxCell id="chatbot-process" value="5.0&#xa;การสนทนา&#xa;แชทบอท&#xa;(Chatbot)" style="ellipse;whiteSpace=wrap;html=1;fillColor=#e1d5e7;strokeColor=#9673a6;fontSize=11;fontStyle=1;" vertex="1" parent="1">
          <mxGeometry x="400" y="550" width="120" height="80" as="geometry" />
        </mxCell>
        
        <!-- Data Stores -->
        <!-- User Data Store -->
        <mxCell id="user-store" value="D1 | ข้อมูลผู้ใช้&#xa;(Users)" style="rounded=0;whiteSpace=wrap;html=1;fillColor=#f8cecc;strokeColor=#b85450;fontSize=11;fontStyle=1;" vertex="1" parent="1">
          <mxGeometry x="700" y="120" width="150" height="40" as="geometry" />
        </mxCell>
        
        <!-- Course Data Store -->
        <mxCell id="course-store" value="D2 | ข้อมูลรายวิชา&#xa;(Courses)" style="rounded=0;whiteSpace=wrap;html=1;fillColor=#f8cecc;strokeColor=#b85450;fontSize=11;fontStyle=1;" vertex="1" parent="1">
          <mxGeometry x="700" y="200" width="150" height="40" as="geometry" />
        </mxCell>
        
        <!-- Curriculum Data Store -->
        <mxCell id="curriculum-store" value="D3 | ข้อมูลหลักสูตร&#xa;(Curricula)" style="rounded=0;whiteSpace=wrap;html=1;fillColor=#f8cecc;strokeColor=#b85450;fontSize=11;fontStyle=1;" vertex="1" parent="1">
          <mxGeometry x="700" y="280" width="150" height="40" as="geometry" />
        </mxCell>
        
        <!-- Study Plan Data Store -->
        <mxCell id="studyplan-store" value="D4 | แผนการเรียน&#xa;(Study Plans)" style="rounded=0;whiteSpace=wrap;html=1;fillColor=#f8cecc;strokeColor=#b85450;fontSize=11;fontStyle=1;" vertex="1" parent="1">
          <mxGeometry x="700" y="360" width="150" height="40" as="geometry" />
        </mxCell>
        
        <!-- Audit Log Data Store -->
        <mxCell id="audit-store" value="D5 | บันทึกเหตุการณ์&#xa;(Audit Logs)" style="rounded=0;whiteSpace=wrap;html=1;fillColor=#f8cecc;strokeColor=#b85450;fontSize=11;fontStyle=1;" vertex="1" parent="1">
          <mxGeometry x="700" y="440" width="150" height="40" as="geometry" />
        </mxCell>
        
        <!-- Data Flows -->
        <!-- User to Authentication -->
        <mxCell id="flow1" value="ข้อมูลเข้าสู่ระบบ&#xa;(login credentials)" style="edgeStyle=orthogonalEdgeStyle;rounded=0;orthogonalLoop=1;jettySize=auto;html=1;exitX=1;exitY=0.25;exitDx=0;exitDy=0;entryX=0;entryY=0.25;entryDx=0;entryDy=0;fontSize=9;fontColor=#0066CC;" edge="1" parent="1" source="user" target="auth-process">
          <mxGeometry relative="1" as="geometry">
            <Array as="points">
              <mxPoint x="220" y="215" />
              <mxPoint x="220" y="170" />
            </Array>
          </mxGeometry>
        </mxCell>
        
        <!-- Authentication to User -->
        <mxCell id="flow2" value="สถานะการเข้าสู่ระบบ&#xa;(auth status)" style="edgeStyle=orthogonalEdgeStyle;rounded=0;orthogonalLoop=1;jettySize=auto;html=1;exitX=0;exitY=0.75;exitDx=0;exitDy=0;entryX=1;entryY=0.75;entryDx=0;entryDy=0;fontSize=9;fontColor=#CC0000;" edge="1" parent="1" source="auth-process" target="user">
          <mxGeometry relative="1" as="geometry">
            <Array as="points">
              <mxPoint x="220" y="210" />
              <mxPoint x="220" y="245" />
            </Array>
          </mxGeometry>
        </mxCell>
        
        <!-- Authentication to Firebase Auth -->
        <mxCell id="flow3" value="คำขอยืนยันตัวตน&#xa;(auth request)" style="edgeStyle=orthogonalEdgeStyle;rounded=0;orthogonalLoop=1;jettySize=auto;html=1;exitX=1;exitY=0.25;exitDx=0;exitDy=0;entryX=0;entryY=0.5;entryDx=0;entryDy=0;fontSize=9;fontColor=#0066CC;" edge="1" parent="1" source="auth-process" target="firebase-auth">
          <mxGeometry relative="1" as="geometry">
            <Array as="points">
              <mxPoint x="900" y="170" />
              <mxPoint x="900" y="180" />
            </Array>
          </mxGeometry>
        </mxCell>
        
        <!-- Firebase Auth to Authentication -->
        <mxCell id="flow4" value="ผลการยืนยัน&#xa;(auth result)" style="edgeStyle=orthogonalEdgeStyle;rounded=0;orthogonalLoop=1;jettySize=auto;html=1;exitX=0;exitY=0.5;exitDx=0;exitDy=0;entryX=1;entryY=0.75;entryDx=0;entryDy=0;fontSize=9;fontColor=#CC0000;" edge="1" parent="1" source="firebase-auth" target="auth-process">
          <mxGeometry relative="1" as="geometry">
            <Array as="points">
              <mxPoint x="900" y="180" />
              <mxPoint x="900" y="210" />
            </Array>
          </mxGeometry>
        </mxCell>
        
        <!-- Authentication to User Management -->
        <mxCell id="flow5" value="ข้อมูลผู้ใช้&#xa;(user data)" style="edgeStyle=orthogonalEdgeStyle;rounded=0;orthogonalLoop=1;jettySize=auto;html=1;exitX=1;exitY=0.5;exitDx=0;exitDy=0;entryX=0;entryY=0.5;entryDx=0;entryDy=0;fontSize=9;fontColor=#0066CC;" edge="1" parent="1" source="auth-process" target="user-mgmt-process">
          <mxGeometry relative="1" as="geometry" />
        </mxCell>
        
        <!-- User Management to User Store -->
        <mxCell id="flow6" value="บันทึกข้อมูลผู้ใช้&#xa;(store user)" style="edgeStyle=orthogonalEdgeStyle;rounded=0;orthogonalLoop=1;jettySize=auto;html=1;exitX=1;exitY=0.25;exitDx=0;exitDy=0;entryX=0;entryY=0.5;entryDx=0;entryDy=0;fontSize=9;fontColor=#0066CC;" edge="1" parent="1" source="user-mgmt-process" target="user-store">
          <mxGeometry relative="1" as="geometry">
            <Array as="points">
              <mxPoint x="650" y="170" />
              <mxPoint x="650" y="140" />
            </Array>
          </mxGeometry>
        </mxCell>
        
        <!-- User Store to Firebase DB -->
        <mxCell id="flow7" value="ซิงค์ข้อมูล&#xa;(sync data)" style="edgeStyle=orthogonalEdgeStyle;rounded=0;orthogonalLoop=1;jettySize=auto;html=1;exitX=1;exitY=0.5;exitDx=0;exitDy=0;entryX=0;entryY=0.25;entryDx=0;entryDy=0;fontSize=9;fontColor=#0066CC;" edge="1" parent="1" source="user-store" target="firebase-db">
          <mxGeometry relative="1" as="geometry">
            <Array as="points">
              <mxPoint x="920" y="140" />
              <mxPoint x="920" y="365" />
            </Array>
          </mxGeometry>
        </mxCell>
        
        <!-- User to Curriculum Process -->
        <mxCell id="flow8" value="คำขอข้อมูลหลักสูตร&#xa;(curriculum request)" style="edgeStyle=orthogonalEdgeStyle;rounded=0;orthogonalLoop=1;jettySize=auto;html=1;exitX=0.5;exitY=1;exitDx=0;exitDy=0;entryX=0;entryY=0.25;entryDx=0;entryDy=0;fontSize=9;fontColor=#0066CC;" edge="1" parent="1" source="user" target="curriculum-process">
          <mxGeometry relative="1" as="geometry">
            <Array as="points">
              <mxPoint x="130" y="300" />
              <mxPoint x="220" y="300" />
              <mxPoint x="220" y="370" />
            </Array>
          </mxGeometry>
        </mxCell>
        
        <!-- Curriculum Process to Curriculum Store -->
        <mxCell id="flow9" value="อ่านข้อมูลหลักสูตร&#xa;(read curriculum)" style="edgeStyle=orthogonalEdgeStyle;rounded=0;orthogonalLoop=1;jettySize=auto;html=1;exitX=1;exitY=0.25;exitDx=0;exitDy=0;entryX=0;entryY=0.5;entryDx=0;entryDy=0;fontSize=9;fontColor=#0066CC;" edge="1" parent="1" source="curriculum-process" target="curriculum-store">
          <mxGeometry relative="1" as="geometry">
            <Array as="points">
              <mxPoint x="650" y="370" />
              <mxPoint x="650" y="300" />
            </Array>
          </mxGeometry>
        </mxCell>
        
        <!-- Curriculum Process to Course Store -->
        <mxCell id="flow10" value="อ่านข้อมูลรายวิชา&#xa;(read courses)" style="edgeStyle=orthogonalEdgeStyle;rounded=0;orthogonalLoop=1;jettySize=auto;html=1;exitX=1;exitY=0.5;exitDx=0;exitDy=0;entryX=0;entryY=0.5;entryDx=0;entryDy=0;fontSize=9;fontColor=#0066CC;" edge="1" parent="1" source="curriculum-process" target="course-store">
          <mxGeometry relative="1" as="geometry">
            <Array as="points">
              <mxPoint x="650" y="390" />
              <mxPoint x="650" y="220" />
            </Array>
          </mxGeometry>
        </mxCell>
        
        <!-- Curriculum Process to Visualization -->
        <mxCell id="flow11" value="ข้อมูลสำหรับแสดงผล&#xa;(display data)" style="edgeStyle=orthogonalEdgeStyle;rounded=0;orthogonalLoop=1;jettySize=auto;html=1;exitX=1;exitY=0.75;exitDx=0;exitDy=0;entryX=0;entryY=0.5;entryDx=0;entryDy=0;fontSize=9;fontColor=#0066CC;" edge="1" parent="1" source="curriculum-process" target="visualization-process">
          <mxGeometry relative="1" as="geometry" />
        </mxCell>
        
        <!-- Visualization to User -->
        <mxCell id="flow12" value="แผนภาพหลักสูตร&#xa;(curriculum charts)" style="edgeStyle=orthogonalEdgeStyle;rounded=0;orthogonalLoop=1;jettySize=auto;html=1;exitX=0;exitY=0.25;exitDx=0;exitDy=0;entryX=0.5;entryY=1;entryDx=0;entryDy=0;fontSize=9;fontColor=#CC0000;" edge="1" parent="1" source="visualization-process" target="user">
          <mxGeometry relative="1" as="geometry">
            <Array as="points">
              <mxPoint x="220" y="370" />
              <mxPoint x="220" y="300" />
              <mxPoint x="130" y="300" />
            </Array>
          </mxGeometry>
        </mxCell>
        
        <!-- User to Chatbot -->
        <mxCell id="flow13" value="คำถาม&#xa;(questions)" style="edgeStyle=orthogonalEdgeStyle;rounded=0;orthogonalLoop=1;jettySize=auto;html=1;exitX=0.5;exitY=1;exitDx=0;exitDy=0;entryX=0;entryY=0.25;entryDx=0;entryDy=0;fontSize=9;fontColor=#0066CC;" edge="1" parent="1" source="user" target="chatbot-process">
          <mxGeometry relative="1" as="geometry">
            <Array as="points">
              <mxPoint x="130" y="500" />
              <mxPoint x="320" y="500" />
              <mxPoint x="320" y="570" />
            </Array>
          </mxGeometry>
        </mxCell>
        
        <!-- Chatbot to n8n -->
        <mxCell id="flow14" value="ส่งคำถาม&#xa;(send query)" style="edgeStyle=orthogonalEdgeStyle;rounded=0;orthogonalLoop=1;jettySize=auto;html=1;exitX=1;exitY=0.5;exitDx=0;exitDy=0;entryX=0;entryY=0.5;entryDx=0;entryDy=0;fontSize=9;fontColor=#0066CC;" edge="1" parent="1" source="chatbot-process" target="n8n-chatbot">
          <mxGeometry relative="1" as="geometry" />
        </mxCell>
        
        <!-- n8n to Chatbot -->
        <mxCell id="flow15" value="คำตอบ&#xa;(response)" style="edgeStyle=orthogonalEdgeStyle;rounded=0;orthogonalLoop=1;jettySize=auto;html=1;exitX=0;exitY=0.5;exitDx=0;exitDy=0;entryX=1;entryY=0.75;entryDx=0;entryDy=0;fontSize=9;fontColor=#CC0000;" edge="1" parent="1" source="n8n-chatbot" target="chatbot-process">
          <mxGeometry relative="1" as="geometry" />
        </mxCell>
        
        <!-- Chatbot to User -->
        <mxCell id="flow16" value="คำตอบ&#xa;(answers)" style="edgeStyle=orthogonalEdgeStyle;rounded=0;orthogonalLoop=1;jettySize=auto;html=1;exitX=0;exitY=0.75;exitDx=0;exitDy=0;entryX=0.5;entryY=1;entryDx=0;entryDy=0;fontSize=9;fontColor=#CC0000;" edge="1" parent="1" source="chatbot-process" target="user">
          <mxGeometry relative="1" as="geometry">
            <Array as="points">
              <mxPoint x="320" y="610" />
              <mxPoint x="320" y="650" />
              <mxPoint x="130" y="650" />
            </Array>
          </mxGeometry>
        </mxCell>
        
        <!-- Data Store to Firebase DB connections -->
        <mxCell id="flow17" value="ข้อมูลรายวิชา" style="edgeStyle=orthogonalEdgeStyle;rounded=0;orthogonalLoop=1;jettySize=auto;html=1;exitX=1;exitY=0.5;exitDx=0;exitDy=0;entryX=0;entryY=0.5;entryDx=0;entryDy=0;fontSize=9;fontColor=#0066CC;" edge="1" parent="1" source="course-store" target="firebase-db">
          <mxGeometry relative="1" as="geometry">
            <Array as="points">
              <mxPoint x="920" y="220" />
              <mxPoint x="920" y="380" />
            </Array>
          </mxGeometry>
        </mxCell>
        
        <mxCell id="flow18" value="ข้อมูลหลักสูตร" style="edgeStyle=orthogonalEdgeStyle;rounded=0;orthogonalLoop=1;jettySize=auto;html=1;exitX=1;exitY=0.5;exitDx=0;exitDy=0;entryX=0;entryY=0.75;entryDx=0;entryDy=0;fontSize=9;fontColor=#0066CC;" edge="1" parent="1" source="curriculum-store" target="firebase-db">
          <mxGeometry relative="1" as="geometry" />
        </mxCell>
        
        <!-- Legend -->
        <mxCell id="legend-bg" value="" style="rounded=1;whiteSpace=wrap;html=1;fillColor=#f8f9fa;strokeColor=#dee2e6;strokeWidth=2;" vertex="1" parent="1">
          <mxGeometry x="80" y="680" width="400" height="120" as="geometry" />
        </mxCell>
        
        <mxCell id="legend-title" value="คำอธิบาย (Legend)" style="text;html=1;strokeColor=none;fillColor=none;align=left;verticalAlign=middle;whiteSpace=wrap;rounded=0;fontSize=12;fontStyle=1;" vertex="1" parent="1">
          <mxGeometry x="90" y="690" width="120" height="20" as="geometry" />
        </mxCell>
        
        <mxCell id="legend-entity" value="External Entity" style="rounded=1;whiteSpace=wrap;html=1;fillColor=#d5e8d4;strokeColor=#82b366;fontSize=10;" vertex="1" parent="1">
          <mxGeometry x="90" y="720" width="80" height="25" as="geometry" />
        </mxCell>
        
        <mxCell id="legend-process" value="Process" style="ellipse;whiteSpace=wrap;html=1;fillColor=#e1d5e7;strokeColor=#9673a6;fontSize=10;" vertex="1" parent="1">
          <mxGeometry x="90" y="755" width="80" height="35" as="geometry" />
        </mxCell>
        
        <mxCell id="legend-datastore" value="Data Store" style="rounded=0;whiteSpace=wrap;html=1;fillColor=#f8cecc;strokeColor=#b85450;fontSize=10;" vertex="1" parent="1">
          <mxGeometry x="190" y="720" width="80" height="25" as="geometry" />
        </mxCell>
        
        <mxCell id="legend-external-service" value="External Service" style="rounded=1;whiteSpace=wrap;html=1;fillColor=#fff2cc;strokeColor=#d6b656;fontSize=10;" vertex="1" parent="1">
          <mxGeometry x="190" y="755" width="80" height="25" as="geometry" />
        </mxCell>
        
        <mxCell id="legend-input-flow" value="Data Flow (Input)" style="text;html=1;strokeColor=none;fillColor=none;align=left;verticalAlign=middle;whiteSpace=wrap;rounded=0;fontSize=10;fontColor=#0066CC;" vertex="1" parent="1">
          <mxGeometry x="290" y="720" width="100" height="15" as="geometry" />
        </mxCell>
        
        <mxCell id="legend-output-flow" value="Data Flow (Output)" style="text;html=1;strokeColor=none;fillColor=none;align=left;verticalAlign=middle;whiteSpace=wrap;rounded=0;fontSize=10;fontColor=#CC0000;" vertex="1" parent="1">
          <mxGeometry x="290" y="745" width="100" height="15" as="geometry" />
        </mxCell>
        
        <mxCell id="legend-arrow1" value="" style="edgeStyle=orthogonalEdgeStyle;rounded=0;orthogonalLoop=1;jettySize=auto;html=1;fontSize=10;fontColor=#0066CC;" edge="1" parent="1">
          <mxGeometry relative="1" as="geometry">
            <mxPoint x="390" y="727" as="sourcePoint" />
            <mxPoint x="430" y="727" as="targetPoint" />
          </mxGeometry>
        </mxCell>
        
        <mxCell id="legend-arrow2" value="" style="edgeStyle=orthogonalEdgeStyle;rounded=0;orthogonalLoop=1;jettySize=auto;html=1;fontSize=10;fontColor=#CC0000;" edge="1" parent="1">
          <mxGeometry relative="1" as="geometry">
            <mxPoint x="390" y="752" as="sourcePoint" />
            <mxPoint x="430" y="752" as="targetPoint" />
          </mxGeometry>
        </mxCell>
        
      </root>
    </mxGraphModel>
  </diagram>
</mxfile>